<?xml version="1.0" encoding="UTF-8" standalone="no"?>
<!DOCTYPE svg PUBLIC "-//W3C//DTD SVG 1.1//EN"
 "http://www.w3.org/Graphics/SVG/1.1/DTD/svg11.dtd">
<!-- Generated by graphviz version 2.44.1 (20200629.0846)
 -->
<!-- Pages: 1 -->
<svg width="241pt" height="288pt"
 viewBox="0.00 0.00 240.86 288.00" xmlns="http://www.w3.org/2000/svg" xmlns:xlink="http://www.w3.org/1999/xlink">
<g id="graph0" class="graph" transform="scale(0.86 0.86) rotate(0) translate(4 332)">
<polygon fill="white" stroke="transparent" points="-4,4 -4,-332 277,-332 277,4 -4,4"/>
<!-- l1 -->
<g id="node1" class="node">
<title>l1</title>
<text text-anchor="middle" x="124" y="-306.3" font-family="Input Mono" font-size="14.00">((1 2) 3 4)</text>
</g>
<!-- b1 -->
<g id="node4" class="node">
<title>b1</title>
<path fill="lightgrey" stroke="black" d="M109,-219.5C109,-219.5 139,-219.5 139,-219.5 145,-219.5 151,-225.5 151,-231.5 151,-231.5 151,-243.5 151,-243.5 151,-249.5 145,-255.5 139,-255.5 139,-255.5 109,-255.5 109,-255.5 103,-255.5 97,-249.5 97,-243.5 97,-243.5 97,-231.5 97,-231.5 97,-225.5 103,-219.5 109,-219.5"/>
<text text-anchor="middle" x="110.5" y="-233.8" font-family="Input Mono" font-size="14.00"> </text>
<polyline fill="none" stroke="black" points="124,-219.5 124,-255.5 "/>
<text text-anchor="middle" x="137.5" y="-233.8" font-family="Input Mono" font-size="14.00"> </text>
</g>
<!-- l1&#45;&gt;b1 -->
<g id="edge1" class="edge">
<title>l1:s&#45;&gt;b1:n</title>
<path fill="none" stroke="black" d="M124,-292C124,-292 124,-276.86 124,-266.22"/>
<polygon fill="black" stroke="black" points="127.5,-266 124,-256 120.5,-266 127.5,-266"/>
</g>
<!-- l2 -->
<g id="node2" class="node">
<title>l2</title>
<text text-anchor="middle" x="52" y="-233.8" font-family="Input Mono" font-size="14.00">(1 2)</text>
</g>
<!-- b2 -->
<g id="node5" class="node">
<title>b2</title>
<path fill="lightgrey" stroke="black" d="M48,-146.5C48,-146.5 78,-146.5 78,-146.5 84,-146.5 90,-152.5 90,-158.5 90,-158.5 90,-170.5 90,-170.5 90,-176.5 84,-182.5 78,-182.5 78,-182.5 48,-182.5 48,-182.5 42,-182.5 36,-176.5 36,-170.5 36,-170.5 36,-158.5 36,-158.5 36,-152.5 42,-146.5 48,-146.5"/>
<text text-anchor="middle" x="49.5" y="-160.8" font-family="Input Mono" font-size="14.00"> </text>
<polyline fill="none" stroke="black" points="63,-146.5 63,-182.5 "/>
<text text-anchor="middle" x="76.5" y="-160.8" font-family="Input Mono" font-size="14.00"> </text>
</g>
<!-- l2&#45;&gt;b2 -->
<g id="edge2" class="edge">
<title>l2:s&#45;&gt;b2:n</title>
<path fill="none" stroke="black" d="M52,-219C52,-219 56.74,-203.5 59.99,-192.84"/>
<polygon fill="black" stroke="black" points="63.42,-193.59 63,-183 56.73,-191.54 63.42,-193.59"/>
</g>
<!-- l3 -->
<g id="node3" class="node">
<title>l3</title>
<text text-anchor="middle" x="196" y="-233.8" font-family="Input Mono" font-size="14.00">(3 4)</text>
</g>
<!-- b4 -->
<g id="node7" class="node">
<title>b4</title>
<path fill="lightgrey" stroke="black" d="M178,-146.5C178,-146.5 208,-146.5 208,-146.5 214,-146.5 220,-152.5 220,-158.5 220,-158.5 220,-170.5 220,-170.5 220,-176.5 214,-182.5 208,-182.5 208,-182.5 178,-182.5 178,-182.5 172,-182.5 166,-176.5 166,-170.5 166,-170.5 166,-158.5 166,-158.5 166,-152.5 172,-146.5 178,-146.5"/>
<text text-anchor="middle" x="179.5" y="-160.8" font-family="Input Mono" font-size="14.00"> </text>
<polyline fill="none" stroke="black" points="193,-146.5 193,-182.5 "/>
<text text-anchor="middle" x="206.5" y="-160.8" font-family="Input Mono" font-size="14.00"> </text>
</g>
<!-- l3&#45;&gt;b4 -->
<g id="edge3" class="edge">
<title>l3:s&#45;&gt;b4:n</title>
<path fill="none" stroke="black" d="M196,-219C196,-219 194.74,-203.86 193.85,-193.22"/>
<polygon fill="black" stroke="black" points="197.32,-192.67 193,-183 190.34,-193.26 197.32,-192.67"/>
</g>
<!-- b1&#45;&gt;b2 -->
<g id="edge4" class="edge">
<title>b1:c&#45;&gt;b2:n</title>
<path fill="none" stroke="black" d="M104.61,-231.25C96.02,-221.29 79.26,-201.86 69.84,-190.94"/>
<ellipse fill="black" stroke="black" cx="107.39" cy="-234.47" rx="4" ry="4"/>
<polygon fill="black" stroke="black" points="72.18,-188.29 63,-183 66.88,-192.86 72.18,-188.29"/>
</g>
<!-- b1&#45;&gt;b4 -->
<g id="edge8" class="edge">
<title>b1:c&#45;&gt;b4:n</title>
<path fill="none" stroke="black" d="M143.89,-231.67C153.97,-221.67 174.54,-201.29 185.59,-190.34"/>
<ellipse fill="black" stroke="black" cx="140.84" cy="-234.68" rx="4" ry="4"/>
<polygon fill="black" stroke="black" points="188.36,-192.52 193,-183 183.43,-187.55 188.36,-192.52"/>
</g>
<!-- b3 -->
<g id="node6" class="node">
<title>b3</title>
<path fill="lightgrey" stroke="black" d="M84,-73.5C84,-73.5 114,-73.5 114,-73.5 120,-73.5 126,-79.5 126,-85.5 126,-85.5 126,-97.5 126,-97.5 126,-103.5 120,-109.5 114,-109.5 114,-109.5 84,-109.5 84,-109.5 78,-109.5 72,-103.5 72,-97.5 72,-97.5 72,-85.5 72,-85.5 72,-79.5 78,-73.5 84,-73.5"/>
<text text-anchor="middle" x="85.5" y="-87.8" font-family="Input Mono" font-size="14.00"> </text>
<polyline fill="none" stroke="black" points="99,-73.5 99,-109.5 "/>
<text text-anchor="middle" x="112.5" y="-87.8" font-family="Input Mono" font-size="14.00">/</text>
</g>
<!-- b2&#45;&gt;b3 -->
<g id="edge6" class="edge">
<title>b2:c&#45;&gt;b3:n</title>
<path fill="none" stroke="black" d="M80.06,-156.92C84.03,-147.09 90.94,-129.96 95.23,-119.34"/>
<ellipse fill="black" stroke="black" cx="78.5" cy="-160.79" rx="4" ry="4"/>
<polygon fill="black" stroke="black" points="98.5,-120.58 99,-110 92.01,-117.96 98.5,-120.58"/>
</g>
<!-- 1 -->
<g id="node9" class="node">
<title>1</title>
<path fill="none" stroke="black" d="M12,-73.5C12,-73.5 42,-73.5 42,-73.5 48,-73.5 54,-79.5 54,-85.5 54,-85.5 54,-97.5 54,-97.5 54,-103.5 48,-109.5 42,-109.5 42,-109.5 12,-109.5 12,-109.5 6,-109.5 0,-103.5 0,-97.5 0,-97.5 0,-85.5 0,-85.5 0,-79.5 6,-73.5 12,-73.5"/>
<text text-anchor="middle" x="27" y="-87.8" font-family="Input Mono" font-size="14.00">1</text>
</g>
<!-- b2&#45;&gt;1 -->
<g id="edge5" class="edge">
<title>b2:c&#45;&gt;1:n</title>
<path fill="none" stroke="black" d="M45.94,-156.92C41.97,-147.09 35.06,-129.96 30.77,-119.34"/>
<ellipse fill="black" stroke="black" cx="47.5" cy="-160.79" rx="4" ry="4"/>
<polygon fill="black" stroke="black" points="33.99,-117.96 27,-110 27.5,-120.58 33.99,-117.96"/>
</g>
<!-- 2 -->
<g id="node10" class="node">
<title>2</title>
<path fill="none" stroke="black" d="M70,-0.5C70,-0.5 100,-0.5 100,-0.5 106,-0.5 112,-6.5 112,-12.5 112,-12.5 112,-24.5 112,-24.5 112,-30.5 106,-36.5 100,-36.5 100,-36.5 70,-36.5 70,-36.5 64,-36.5 58,-30.5 58,-24.5 58,-24.5 58,-12.5 58,-12.5 58,-6.5 64,-0.5 70,-0.5"/>
<text text-anchor="middle" x="85" y="-14.8" font-family="Input Mono" font-size="14.00">2</text>
</g>
<!-- b3&#45;&gt;2 -->
<g id="edge7" class="edge">
<title>b3:c&#45;&gt;2:n</title>
<path fill="none" stroke="black" d="M85,-83.46C85,-73.86 85,-57.81 85,-47.31"/>
<ellipse fill="black" stroke="black" cx="85" cy="-87.5" rx="4" ry="4"/>
<polygon fill="black" stroke="black" points="88.5,-47 85,-37 81.5,-47 88.5,-47"/>
</g>
<!-- b5 -->
<g id="node8" class="node">
<title>b5</title>
<path fill="lightgrey" stroke="black" d="M231,-73.5C231,-73.5 261,-73.5 261,-73.5 267,-73.5 273,-79.5 273,-85.5 273,-85.5 273,-97.5 273,-97.5 273,-103.5 267,-109.5 261,-109.5 261,-109.5 231,-109.5 231,-109.5 225,-109.5 219,-103.5 219,-97.5 219,-97.5 219,-85.5 219,-85.5 219,-79.5 225,-73.5 231,-73.5"/>
<text text-anchor="middle" x="232.5" y="-87.8" font-family="Input Mono" font-size="14.00"> </text>
<polyline fill="none" stroke="black" points="246,-73.5 246,-109.5 "/>
<text text-anchor="middle" x="259.5" y="-87.8" font-family="Input Mono" font-size="14.00">/</text>
</g>
<!-- b4&#45;&gt;b5 -->
<g id="edge10" class="edge">
<title>b4:c&#45;&gt;b5:n</title>
<path fill="none" stroke="black" d="M211.78,-157.82C218.94,-147.81 232.43,-128.96 240.16,-118.16"/>
<ellipse fill="black" stroke="black" cx="209.33" cy="-161.25" rx="4" ry="4"/>
<polygon fill="black" stroke="black" points="243.03,-120.17 246,-110 237.33,-116.1 243.03,-120.17"/>
</g>
<!-- 3 -->
<g id="node11" class="node">
<title>3</title>
<path fill="none" stroke="black" d="M159,-73.5C159,-73.5 189,-73.5 189,-73.5 195,-73.5 201,-79.5 201,-85.5 201,-85.5 201,-97.5 201,-97.5 201,-103.5 195,-109.5 189,-109.5 189,-109.5 159,-109.5 159,-109.5 153,-109.5 147,-103.5 147,-97.5 147,-97.5 147,-85.5 147,-85.5 147,-79.5 153,-73.5 159,-73.5"/>
<text text-anchor="middle" x="174" y="-87.8" font-family="Input Mono" font-size="14.00">3</text>
</g>
<!-- b4&#45;&gt;3 -->
<g id="edge9" class="edge">
<title>b4:c&#45;&gt;3:n</title>
<path fill="none" stroke="black" d="M178.26,-156.46C177.38,-146.86 175.91,-130.81 174.95,-120.31"/>
<ellipse fill="black" stroke="black" cx="178.63" cy="-160.52" rx="4" ry="4"/>
<polygon fill="black" stroke="black" points="178.4,-119.64 174,-110 171.43,-120.28 178.4,-119.64"/>
</g>
<!-- 4 -->
<g id="node12" class="node">
<title>4</title>
<path fill="none" stroke="black" d="M217,-0.5C217,-0.5 247,-0.5 247,-0.5 253,-0.5 259,-6.5 259,-12.5 259,-12.5 259,-24.5 259,-24.5 259,-30.5 253,-36.5 247,-36.5 247,-36.5 217,-36.5 217,-36.5 211,-36.5 205,-30.5 205,-24.5 205,-24.5 205,-12.5 205,-12.5 205,-6.5 211,-0.5 217,-0.5"/>
<text text-anchor="middle" x="232" y="-14.8" font-family="Input Mono" font-size="14.00">4</text>
</g>
<!-- b5&#45;&gt;4 -->
<g id="edge11" class="edge">
<title>b5:c&#45;&gt;4:n</title>
<path fill="none" stroke="black" d="M232,-83.46C232,-73.86 232,-57.81 232,-47.31"/>
<ellipse fill="black" stroke="black" cx="232" cy="-87.5" rx="4" ry="4"/>
<polygon fill="black" stroke="black" points="235.5,-47 232,-37 228.5,-47 235.5,-47"/>
</g>
</g>
</svg>
