<?xml version="1.0" encoding="UTF-8" standalone="no"?>
<!DOCTYPE svg PUBLIC "-//W3C//DTD SVG 1.1//EN"
 "http://www.w3.org/Graphics/SVG/1.1/DTD/svg11.dtd">
<!-- Generated by graphviz version 2.44.1 (20200629.0846)
 -->
<!-- Pages: 1 -->
<svg width="144pt" height="111pt"
 viewBox="0.00 0.00 144.00 110.95" xmlns="http://www.w3.org/2000/svg" xmlns:xlink="http://www.w3.org/1999/xlink">
<g id="graph0" class="graph" transform="scale(0.59 0.59) rotate(0) translate(4 184)">
<polygon fill="white" stroke="transparent" points="-4,4 -4,-184 240,-184 240,4 -4,4"/>
<!-- l1 -->
<g id="node1" class="node">
<title>l1</title>
<text text-anchor="middle" x="137" y="-158.3" font-family="Menlo" font-size="14.00">((1 2) 3 4)</text>
</g>
<!-- l2 -->
<g id="node2" class="node">
<title>l2</title>
<text text-anchor="middle" x="63" y="-86.3" font-family="Menlo" font-size="14.00">(1 2)</text>
</g>
<!-- l1&#45;&#45;l2 -->
<g id="edge1" class="edge">
<title>l1&#45;&#45;l2</title>
<path fill="none" stroke="black" d="M118.71,-143.7C107.24,-132.85 92.51,-118.92 81.08,-108.1"/>
</g>
<!-- 3 -->
<g id="node3" class="node">
<title>3</title>
<text text-anchor="middle" x="137" y="-86.3" font-family="Menlo" font-size="14.00">3</text>
</g>
<!-- l1&#45;&#45;3 -->
<g id="edge2" class="edge">
<title>l1&#45;&#45;3</title>
<path fill="none" stroke="black" d="M137,-143.7C137,-132.85 137,-118.92 137,-108.1"/>
</g>
<!-- 4 -->
<g id="node4" class="node">
<title>4</title>
<text text-anchor="middle" x="209" y="-86.3" font-family="Menlo" font-size="14.00">4</text>
</g>
<!-- l1&#45;&#45;4 -->
<g id="edge3" class="edge">
<title>l1&#45;&#45;4</title>
<path fill="none" stroke="black" d="M154.8,-143.7C165.96,-132.85 180.29,-118.92 191.41,-108.1"/>
</g>
<!-- 1 -->
<g id="node5" class="node">
<title>1</title>
<text text-anchor="middle" x="27" y="-14.3" font-family="Menlo" font-size="14.00">1</text>
</g>
<!-- l2&#45;&#45;1 -->
<g id="edge4" class="edge">
<title>l2&#45;&#45;1</title>
<path fill="none" stroke="black" d="M54.1,-71.7C48.52,-60.85 41.36,-46.92 35.8,-36.1"/>
</g>
<!-- 2 -->
<g id="node6" class="node">
<title>2</title>
<text text-anchor="middle" x="99" y="-14.3" font-family="Menlo" font-size="14.00">2</text>
</g>
<!-- l2&#45;&#45;2 -->
<g id="edge5" class="edge">
<title>l2&#45;&#45;2</title>
<path fill="none" stroke="black" d="M71.9,-71.7C77.48,-60.85 84.64,-46.92 90.2,-36.1"/>
</g>
</g>
</svg>
