<?xml version="1.0" encoding="UTF-8" standalone="no"?>
<!DOCTYPE svg PUBLIC "-//W3C//DTD SVG 1.1//EN"
 "http://www.w3.org/Graphics/SVG/1.1/DTD/svg11.dtd">
<!-- Generated by graphviz version 2.44.1 (20200629.0846)
 -->
<!-- Pages: 1 -->
<svg width="142pt" height="288pt"
 viewBox="0.00 0.00 142.18 288.00" xmlns="http://www.w3.org/2000/svg" xmlns:xlink="http://www.w3.org/1999/xlink">
<g id="graph0" class="graph" transform="scale(0.52 0.52) rotate(0) translate(4 551)">
<polygon fill="white" stroke="transparent" points="-4,4 -4,-551 270,-551 270,4 -4,4"/>
<!-- l1 -->
<g id="node1" class="node">
<title>l1</title>
<text text-anchor="middle" x="63" y="-525.3" font-family="Input Mono" font-size="14.00">(1 (2 (3 4)))</text>
</g>
<!-- b1 -->
<g id="node4" class="node">
<title>b1</title>
<path fill="lightgrey" stroke="black" d="M48,-438.5C48,-438.5 78,-438.5 78,-438.5 84,-438.5 90,-444.5 90,-450.5 90,-450.5 90,-462.5 90,-462.5 90,-468.5 84,-474.5 78,-474.5 78,-474.5 48,-474.5 48,-474.5 42,-474.5 36,-468.5 36,-462.5 36,-462.5 36,-450.5 36,-450.5 36,-444.5 42,-438.5 48,-438.5"/>
<text text-anchor="middle" x="49.5" y="-452.8" font-family="Input Mono" font-size="14.00"> </text>
<polyline fill="none" stroke="black" points="63,-438.5 63,-474.5 "/>
<text text-anchor="middle" x="76.5" y="-452.8" font-family="Input Mono" font-size="14.00"> </text>
</g>
<!-- l1&#45;&gt;b1 -->
<g id="edge1" class="edge">
<title>l1&#45;&gt;b1:n</title>
<path fill="none" stroke="black" d="M63,-510.94C63,-502.47 63,-492.51 63,-485.23"/>
<polygon fill="black" stroke="black" points="66.5,-485 63,-475 59.5,-485 66.5,-485"/>
</g>
<!-- l2 -->
<g id="node2" class="node">
<title>l2</title>
<text text-anchor="middle" x="177" y="-379.8" font-family="Input Mono" font-size="14.00">(2 (3 4))</text>
</g>
<!-- b3 -->
<g id="node6" class="node">
<title>b3</title>
<path fill="lightgrey" stroke="black" d="M116,-292.5C116,-292.5 146,-292.5 146,-292.5 152,-292.5 158,-298.5 158,-304.5 158,-304.5 158,-316.5 158,-316.5 158,-322.5 152,-328.5 146,-328.5 146,-328.5 116,-328.5 116,-328.5 110,-328.5 104,-322.5 104,-316.5 104,-316.5 104,-304.5 104,-304.5 104,-298.5 110,-292.5 116,-292.5"/>
<text text-anchor="middle" x="117.5" y="-306.8" font-family="Input Mono" font-size="14.00"> </text>
<polyline fill="none" stroke="black" points="131,-292.5 131,-328.5 "/>
<text text-anchor="middle" x="144.5" y="-306.8" font-family="Input Mono" font-size="14.00"> </text>
</g>
<!-- l2&#45;&gt;b3 -->
<g id="edge2" class="edge">
<title>l2&#45;&gt;b3:n</title>
<path fill="none" stroke="black" d="M162.19,-365.28C153.89,-355.63 143.96,-344.07 137.56,-336.64"/>
<polygon fill="black" stroke="black" points="140.17,-334.3 131,-329 134.87,-338.86 140.17,-334.3"/>
</g>
<!-- l3 -->
<g id="node3" class="node">
<title>l3</title>
<text text-anchor="middle" x="239" y="-233.8" font-family="Input Mono" font-size="14.00">(3 4)</text>
</g>
<!-- b5 -->
<g id="node8" class="node">
<title>b5</title>
<path fill="lightgrey" stroke="black" d="M181,-146.5C181,-146.5 211,-146.5 211,-146.5 217,-146.5 223,-152.5 223,-158.5 223,-158.5 223,-170.5 223,-170.5 223,-176.5 217,-182.5 211,-182.5 211,-182.5 181,-182.5 181,-182.5 175,-182.5 169,-176.5 169,-170.5 169,-170.5 169,-158.5 169,-158.5 169,-152.5 175,-146.5 181,-146.5"/>
<text text-anchor="middle" x="182.5" y="-160.8" font-family="Input Mono" font-size="14.00"> </text>
<polyline fill="none" stroke="black" points="196,-146.5 196,-182.5 "/>
<text text-anchor="middle" x="209.5" y="-160.8" font-family="Input Mono" font-size="14.00"> </text>
</g>
<!-- l3&#45;&gt;b5 -->
<g id="edge3" class="edge">
<title>l3&#45;&gt;b5:n</title>
<path fill="none" stroke="black" d="M225.16,-219.28C217.5,-209.75 208.35,-198.36 202.37,-190.92"/>
<polygon fill="black" stroke="black" points="204.99,-188.6 196,-183 199.54,-192.99 204.99,-188.6"/>
</g>
<!-- b2 -->
<g id="node5" class="node">
<title>b2</title>
<path fill="lightgrey" stroke="black" d="M84,-365.5C84,-365.5 114,-365.5 114,-365.5 120,-365.5 126,-371.5 126,-377.5 126,-377.5 126,-389.5 126,-389.5 126,-395.5 120,-401.5 114,-401.5 114,-401.5 84,-401.5 84,-401.5 78,-401.5 72,-395.5 72,-389.5 72,-389.5 72,-377.5 72,-377.5 72,-371.5 78,-365.5 84,-365.5"/>
<text text-anchor="middle" x="85.5" y="-379.8" font-family="Input Mono" font-size="14.00"> </text>
<polyline fill="none" stroke="black" points="99,-365.5 99,-401.5 "/>
<text text-anchor="middle" x="112.5" y="-379.8" font-family="Input Mono" font-size="14.00">/</text>
</g>
<!-- b1&#45;&gt;b2 -->
<g id="edge5" class="edge">
<title>b1:c&#45;&gt;b2:n</title>
<path fill="none" stroke="black" d="M80.06,-448.92C84.03,-439.09 90.94,-421.96 95.23,-411.34"/>
<ellipse fill="black" stroke="black" cx="78.5" cy="-452.79" rx="4" ry="4"/>
<polygon fill="black" stroke="black" points="98.5,-412.58 99,-402 92.01,-409.96 98.5,-412.58"/>
</g>
<!-- 1 -->
<g id="node10" class="node">
<title>1</title>
<path fill="none" stroke="black" d="M12,-365.5C12,-365.5 42,-365.5 42,-365.5 48,-365.5 54,-371.5 54,-377.5 54,-377.5 54,-389.5 54,-389.5 54,-395.5 48,-401.5 42,-401.5 42,-401.5 12,-401.5 12,-401.5 6,-401.5 0,-395.5 0,-389.5 0,-389.5 0,-377.5 0,-377.5 0,-371.5 6,-365.5 12,-365.5"/>
<text text-anchor="middle" x="27" y="-379.8" font-family="Input Mono" font-size="14.00">1</text>
</g>
<!-- b1&#45;&gt;1 -->
<g id="edge4" class="edge">
<title>b1:c&#45;&gt;1:n</title>
<path fill="none" stroke="black" d="M45.94,-448.92C41.97,-439.09 35.06,-421.96 30.77,-411.34"/>
<ellipse fill="black" stroke="black" cx="47.5" cy="-452.79" rx="4" ry="4"/>
<polygon fill="black" stroke="black" points="33.99,-409.96 27,-402 27.5,-412.58 33.99,-409.96"/>
</g>
<!-- b2&#45;&gt;b3 -->
<g id="edge6" class="edge">
<title>b2:c&#45;&gt;b3:n</title>
<path fill="none" stroke="black" d="M90.28,-377.25C98.68,-367.29 115.08,-347.86 124.3,-336.94"/>
<ellipse fill="black" stroke="black" cx="87.58" cy="-380.44" rx="4" ry="4"/>
<polygon fill="black" stroke="black" points="127.22,-338.9 131,-329 121.88,-334.38 127.22,-338.9"/>
</g>
<!-- b4 -->
<g id="node7" class="node">
<title>b4</title>
<path fill="lightgrey" stroke="black" d="M152,-219.5C152,-219.5 182,-219.5 182,-219.5 188,-219.5 194,-225.5 194,-231.5 194,-231.5 194,-243.5 194,-243.5 194,-249.5 188,-255.5 182,-255.5 182,-255.5 152,-255.5 152,-255.5 146,-255.5 140,-249.5 140,-243.5 140,-243.5 140,-231.5 140,-231.5 140,-225.5 146,-219.5 152,-219.5"/>
<text text-anchor="middle" x="153.5" y="-233.8" font-family="Input Mono" font-size="14.00"> </text>
<polyline fill="none" stroke="black" points="167,-219.5 167,-255.5 "/>
<text text-anchor="middle" x="180.5" y="-233.8" font-family="Input Mono" font-size="14.00">/</text>
</g>
<!-- b3&#45;&gt;b4 -->
<g id="edge8" class="edge">
<title>b3:c&#45;&gt;b4:n</title>
<path fill="none" stroke="black" d="M148.06,-302.92C152.03,-293.09 158.94,-275.96 163.23,-265.34"/>
<ellipse fill="black" stroke="black" cx="146.5" cy="-306.79" rx="4" ry="4"/>
<polygon fill="black" stroke="black" points="166.5,-266.58 167,-256 160.01,-263.96 166.5,-266.58"/>
</g>
<!-- 2 -->
<g id="node11" class="node">
<title>2</title>
<path fill="none" stroke="black" d="M80,-219.5C80,-219.5 110,-219.5 110,-219.5 116,-219.5 122,-225.5 122,-231.5 122,-231.5 122,-243.5 122,-243.5 122,-249.5 116,-255.5 110,-255.5 110,-255.5 80,-255.5 80,-255.5 74,-255.5 68,-249.5 68,-243.5 68,-243.5 68,-231.5 68,-231.5 68,-225.5 74,-219.5 80,-219.5"/>
<text text-anchor="middle" x="95" y="-233.8" font-family="Input Mono" font-size="14.00">2</text>
</g>
<!-- b3&#45;&gt;2 -->
<g id="edge7" class="edge">
<title>b3:c&#45;&gt;2:n</title>
<path fill="none" stroke="black" d="M113.94,-302.92C109.97,-293.09 103.06,-275.96 98.77,-265.34"/>
<ellipse fill="black" stroke="black" cx="115.5" cy="-306.79" rx="4" ry="4"/>
<polygon fill="black" stroke="black" points="101.99,-263.96 95,-256 95.5,-266.58 101.99,-263.96"/>
</g>
<!-- b4&#45;&gt;b5 -->
<g id="edge9" class="edge">
<title>b4:c&#45;&gt;b5:n</title>
<path fill="none" stroke="black" d="M158.27,-230.82C166.17,-220.81 181.04,-201.96 189.56,-191.16"/>
<ellipse fill="black" stroke="black" cx="155.48" cy="-234.36" rx="4" ry="4"/>
<polygon fill="black" stroke="black" points="192.55,-193.02 196,-183 187.06,-188.68 192.55,-193.02"/>
</g>
<!-- b6 -->
<g id="node9" class="node">
<title>b6</title>
<path fill="lightgrey" stroke="black" d="M217,-73.5C217,-73.5 247,-73.5 247,-73.5 253,-73.5 259,-79.5 259,-85.5 259,-85.5 259,-97.5 259,-97.5 259,-103.5 253,-109.5 247,-109.5 247,-109.5 217,-109.5 217,-109.5 211,-109.5 205,-103.5 205,-97.5 205,-97.5 205,-85.5 205,-85.5 205,-79.5 211,-73.5 217,-73.5"/>
<text text-anchor="middle" x="218.5" y="-87.8" font-family="Input Mono" font-size="14.00"> </text>
<polyline fill="none" stroke="black" points="232,-73.5 232,-109.5 "/>
<text text-anchor="middle" x="245.5" y="-87.8" font-family="Input Mono" font-size="14.00">/</text>
</g>
<!-- b5&#45;&gt;b6 -->
<g id="edge11" class="edge">
<title>b5:c&#45;&gt;b6:n</title>
<path fill="none" stroke="black" d="M213.06,-156.92C217.03,-147.09 223.94,-129.96 228.23,-119.34"/>
<ellipse fill="black" stroke="black" cx="211.5" cy="-160.79" rx="4" ry="4"/>
<polygon fill="black" stroke="black" points="231.5,-120.58 232,-110 225.01,-117.96 231.5,-120.58"/>
</g>
<!-- 3 -->
<g id="node12" class="node">
<title>3</title>
<path fill="none" stroke="black" d="M145,-73.5C145,-73.5 175,-73.5 175,-73.5 181,-73.5 187,-79.5 187,-85.5 187,-85.5 187,-97.5 187,-97.5 187,-103.5 181,-109.5 175,-109.5 175,-109.5 145,-109.5 145,-109.5 139,-109.5 133,-103.5 133,-97.5 133,-97.5 133,-85.5 133,-85.5 133,-79.5 139,-73.5 145,-73.5"/>
<text text-anchor="middle" x="160" y="-87.8" font-family="Input Mono" font-size="14.00">3</text>
</g>
<!-- b5&#45;&gt;3 -->
<g id="edge10" class="edge">
<title>b5:c&#45;&gt;3:n</title>
<path fill="none" stroke="black" d="M178.94,-156.92C174.97,-147.09 168.06,-129.96 163.77,-119.34"/>
<ellipse fill="black" stroke="black" cx="180.5" cy="-160.79" rx="4" ry="4"/>
<polygon fill="black" stroke="black" points="166.99,-117.96 160,-110 160.5,-120.58 166.99,-117.96"/>
</g>
<!-- 4 -->
<g id="node13" class="node">
<title>4</title>
<path fill="none" stroke="black" d="M203,-0.5C203,-0.5 233,-0.5 233,-0.5 239,-0.5 245,-6.5 245,-12.5 245,-12.5 245,-24.5 245,-24.5 245,-30.5 239,-36.5 233,-36.5 233,-36.5 203,-36.5 203,-36.5 197,-36.5 191,-30.5 191,-24.5 191,-24.5 191,-12.5 191,-12.5 191,-6.5 197,-0.5 203,-0.5"/>
<text text-anchor="middle" x="218" y="-14.8" font-family="Input Mono" font-size="14.00">4</text>
</g>
<!-- b6&#45;&gt;4 -->
<g id="edge12" class="edge">
<title>b6:c&#45;&gt;4:n</title>
<path fill="none" stroke="black" d="M218,-83.46C218,-73.86 218,-57.81 218,-47.31"/>
<ellipse fill="black" stroke="black" cx="218" cy="-87.5" rx="4" ry="4"/>
<polygon fill="black" stroke="black" points="221.5,-47 218,-37 214.5,-47 221.5,-47"/>
</g>
</g>
</svg>
