<?xml version="1.0" encoding="UTF-8" standalone="no"?>
<!DOCTYPE svg PUBLIC "-//W3C//DTD SVG 1.1//EN"
 "http://www.w3.org/Graphics/SVG/1.1/DTD/svg11.dtd">
<!-- Generated by graphviz version 2.44.1 (20200629.0846)
 -->
<!-- Pages: 1 -->
<svg width="212pt" height="260pt"
 viewBox="0.00 0.00 212.00 260.00" xmlns="http://www.w3.org/2000/svg" xmlns:xlink="http://www.w3.org/1999/xlink">
<g id="graph0" class="graph" transform="scale(1 1) rotate(0) translate(4 256)">
<polygon fill="white" stroke="transparent" points="-4,4 -4,-256 208,-256 208,4 -4,4"/>
<!-- l1 -->
<g id="node1" class="node">
<title>l1</title>
<text text-anchor="middle" x="66" y="-230.3" font-family="Input Mono" font-size="14.00">(1 (2 (3 4)))</text>
</g>
<!-- l2 -->
<g id="node3" class="node">
<title>l2</title>
<text text-anchor="middle" x="105" y="-158.3" font-family="Input Mono" font-size="14.00">(2 (3 4))</text>
</g>
<!-- l1&#45;&#45;l2 -->
<g id="edge2" class="edge">
<title>l1&#45;&#45;l2</title>
<path fill="none" stroke="black" d="M75.64,-215.7C81.69,-204.85 89.45,-190.92 95.47,-180.1"/>
</g>
<!-- 1 -->
<g id="node4" class="node">
<title>1</title>
<text text-anchor="middle" x="27" y="-158.3" font-family="Input Mono" font-size="14.00">1</text>
</g>
<!-- l1&#45;&#45;1 -->
<g id="edge1" class="edge">
<title>l1&#45;&#45;1</title>
<path fill="none" stroke="black" d="M56.36,-215.7C50.31,-204.85 42.55,-190.92 36.53,-180.1"/>
</g>
<!-- l3 -->
<g id="node2" class="node">
<title>l3</title>
<text text-anchor="middle" x="141" y="-86.3" font-family="Input Mono" font-size="14.00">(3 4)</text>
</g>
<!-- 3 -->
<g id="node6" class="node">
<title>3</title>
<text text-anchor="middle" x="105" y="-14.3" font-family="Input Mono" font-size="14.00">3</text>
</g>
<!-- l3&#45;&#45;3 -->
<g id="edge5" class="edge">
<title>l3&#45;&#45;3</title>
<path fill="none" stroke="black" d="M132.1,-71.7C126.52,-60.85 119.36,-46.92 113.8,-36.1"/>
</g>
<!-- 4 -->
<g id="node7" class="node">
<title>4</title>
<text text-anchor="middle" x="177" y="-14.3" font-family="Input Mono" font-size="14.00">4</text>
</g>
<!-- l3&#45;&#45;4 -->
<g id="edge6" class="edge">
<title>l3&#45;&#45;4</title>
<path fill="none" stroke="black" d="M149.9,-71.7C155.48,-60.85 162.64,-46.92 168.2,-36.1"/>
</g>
<!-- l2&#45;&#45;l3 -->
<g id="edge4" class="edge">
<title>l2&#45;&#45;l3</title>
<path fill="none" stroke="black" d="M113.9,-143.7C119.48,-132.85 126.64,-118.92 132.2,-108.1"/>
</g>
<!-- 2 -->
<g id="node5" class="node">
<title>2</title>
<text text-anchor="middle" x="69" y="-86.3" font-family="Input Mono" font-size="14.00">2</text>
</g>
<!-- l2&#45;&#45;2 -->
<g id="edge3" class="edge">
<title>l2&#45;&#45;2</title>
<path fill="none" stroke="black" d="M96.1,-143.7C90.52,-132.85 83.36,-118.92 77.8,-108.1"/>
</g>
</g>
</svg>
