<?xml version="1.0" encoding="UTF-8" standalone="no"?>
<!DOCTYPE svg PUBLIC "-//W3C//DTD SVG 1.1//EN"
 "http://www.w3.org/Graphics/SVG/1.1/DTD/svg11.dtd">
<!-- Generated by graphviz version 2.44.1 (20200629.0846)
 -->
<!-- Pages: 1 -->
<svg width="278pt" height="404pt"
 viewBox="0.00 0.00 278.00 404.00" xmlns="http://www.w3.org/2000/svg" xmlns:xlink="http://www.w3.org/1999/xlink">
<g id="graph0" class="graph" transform="scale(1 1) rotate(0) translate(4 400)">
<polygon fill="white" stroke="transparent" points="-4,4 -4,-400 274,-400 274,4 -4,4"/>
<!-- 1 -->
<g id="node1" class="node">
<title>1</title>
<ellipse fill="none" stroke="blue" cx="63" cy="-378" rx="27" ry="18"/>
<text text-anchor="middle" x="63" y="-376.1" font-family="Menlo" font-size="8.00">n, 1</text>
</g>
<!-- 2 -->
<g id="node2" class="node">
<title>2</title>
<ellipse fill="none" stroke="gray" cx="27" cy="-306" rx="27" ry="18"/>
<text text-anchor="middle" x="27" y="-304.1" font-family="Menlo" font-size="8.00">n, 0</text>
</g>
<!-- 1&#45;&gt;2 -->
<g id="edge1" class="edge">
<title>1&#45;&gt;2</title>
<path fill="none" stroke="black" d="M54.65,-360.76C50.29,-352.28 44.85,-341.71 39.96,-332.2"/>
<polygon fill="black" stroke="black" points="42.99,-330.44 35.3,-323.15 36.77,-333.64 42.99,-330.44"/>
</g>
<!-- 3 -->
<g id="node3" class="node">
<title>3</title>
<ellipse fill="none" stroke="black" cx="99" cy="-306" rx="27" ry="18"/>
<text text-anchor="middle" x="99" y="-304.1" font-family="Menlo" font-size="8.00">n&#45;1, 1</text>
</g>
<!-- 1&#45;&gt;3 -->
<g id="edge2" class="edge">
<title>1&#45;&gt;3</title>
<path fill="none" stroke="black" d="M71.35,-360.76C75.71,-352.28 81.15,-341.71 86.04,-332.2"/>
<polygon fill="black" stroke="black" points="89.23,-333.64 90.7,-323.15 83.01,-330.44 89.23,-333.64"/>
</g>
<!-- 4 -->
<g id="node4" class="node">
<title>4</title>
<ellipse fill="none" stroke="gray" cx="63" cy="-234" rx="27" ry="18"/>
<text text-anchor="middle" x="63" y="-232.1" font-family="Menlo" font-size="8.00">n&#45;1, 0</text>
</g>
<!-- 3&#45;&gt;4 -->
<g id="edge3" class="edge">
<title>3&#45;&gt;4</title>
<path fill="none" stroke="black" d="M90.65,-288.76C86.29,-280.28 80.85,-269.71 75.96,-260.2"/>
<polygon fill="black" stroke="black" points="78.99,-258.44 71.3,-251.15 72.77,-261.64 78.99,-258.44"/>
</g>
<!-- 5 -->
<g id="node5" class="node">
<title>5</title>
<ellipse fill="none" stroke="black" cx="135" cy="-234" rx="27" ry="18"/>
<text text-anchor="middle" x="135" y="-232.1" font-family="Menlo" font-size="8.00">n&#45;2, 1</text>
</g>
<!-- 3&#45;&gt;5 -->
<g id="edge4" class="edge">
<title>3&#45;&gt;5</title>
<path fill="none" stroke="black" d="M107.35,-288.76C111.71,-280.28 117.15,-269.71 122.04,-260.2"/>
<polygon fill="black" stroke="black" points="125.23,-261.64 126.7,-251.15 119.01,-258.44 125.23,-261.64"/>
</g>
<!-- 6 -->
<g id="node6" class="node">
<title>6</title>
<ellipse fill="none" stroke="gray" cx="99" cy="-162" rx="27" ry="18"/>
<text text-anchor="middle" x="99" y="-160.1" font-family="Menlo" font-size="8.00">n&#45;2, 0</text>
</g>
<!-- 5&#45;&gt;6 -->
<g id="edge5" class="edge">
<title>5&#45;&gt;6</title>
<path fill="none" stroke="black" d="M126.65,-216.76C122.29,-208.28 116.85,-197.71 111.96,-188.2"/>
<polygon fill="black" stroke="black" points="114.99,-186.44 107.3,-179.15 108.77,-189.64 114.99,-186.44"/>
</g>
<!-- 7 -->
<g id="node7" class="node">
<title>7</title>
<ellipse fill="none" stroke="black" cx="171" cy="-162" rx="27" ry="18"/>
<text text-anchor="middle" x="171" y="-160.1" font-family="Menlo" font-size="8.00">...</text>
</g>
<!-- 5&#45;&gt;7 -->
<g id="edge6" class="edge">
<title>5&#45;&gt;7</title>
<path fill="none" stroke="black" d="M143.35,-216.76C147.71,-208.28 153.15,-197.71 158.04,-188.2"/>
<polygon fill="black" stroke="black" points="161.23,-189.64 162.7,-179.15 155.01,-186.44 161.23,-189.64"/>
</g>
<!-- 8 -->
<g id="node8" class="node">
<title>8</title>
<ellipse fill="none" stroke="gray" cx="135" cy="-90" rx="27" ry="18"/>
<text text-anchor="middle" x="135" y="-88.1" font-family="Menlo" font-size="8.00">2, 0</text>
</g>
<!-- 7&#45;&gt;8 -->
<g id="edge7" class="edge">
<title>7&#45;&gt;8</title>
<path fill="none" stroke="black" d="M162.65,-144.76C158.29,-136.28 152.85,-125.71 147.96,-116.2"/>
<polygon fill="black" stroke="black" points="150.99,-114.44 143.3,-107.15 144.77,-117.64 150.99,-114.44"/>
</g>
<!-- 9 -->
<g id="node9" class="node">
<title>9</title>
<ellipse fill="none" stroke="black" cx="207" cy="-90" rx="27" ry="18"/>
<text text-anchor="middle" x="207" y="-88.1" font-family="Menlo" font-size="8.00">1, 1</text>
</g>
<!-- 7&#45;&gt;9 -->
<g id="edge8" class="edge">
<title>7&#45;&gt;9</title>
<path fill="none" stroke="black" d="M179.35,-144.76C183.71,-136.28 189.15,-125.71 194.04,-116.2"/>
<polygon fill="black" stroke="black" points="197.23,-117.64 198.7,-107.15 191.01,-114.44 197.23,-117.64"/>
</g>
<!-- 10 -->
<g id="node10" class="node">
<title>10</title>
<ellipse fill="none" stroke="gray" cx="171" cy="-18" rx="27" ry="18"/>
<text text-anchor="middle" x="171" y="-16.1" font-family="Menlo" font-size="8.00">1, 0</text>
</g>
<!-- 9&#45;&gt;10 -->
<g id="edge9" class="edge">
<title>9&#45;&gt;10</title>
<path fill="none" stroke="black" d="M198.65,-72.76C194.29,-64.28 188.85,-53.71 183.96,-44.2"/>
<polygon fill="black" stroke="black" points="186.99,-42.44 179.3,-35.15 180.77,-45.64 186.99,-42.44"/>
</g>
<!-- 11 -->
<g id="node11" class="node">
<title>11</title>
<ellipse fill="none" stroke="green" cx="243" cy="-18" rx="27" ry="18"/>
<text text-anchor="middle" x="243" y="-16.1" font-family="Menlo" font-size="8.00">0, 1</text>
</g>
<!-- 9&#45;&gt;11 -->
<g id="edge10" class="edge">
<title>9&#45;&gt;11</title>
<path fill="none" stroke="black" d="M215.35,-72.76C219.71,-64.28 225.15,-53.71 230.04,-44.2"/>
<polygon fill="black" stroke="black" points="233.23,-45.64 234.7,-35.15 227.01,-42.44 233.23,-45.64"/>
</g>
</g>
</svg>
