<?xml version="1.0" encoding="UTF-8" standalone="no"?>
<!DOCTYPE svg PUBLIC "-//W3C//DTD SVG 1.1//EN"
 "http://www.w3.org/Graphics/SVG/1.1/DTD/svg11.dtd">
<!-- Generated by graphviz version 2.44.1 (20200629.0846)
 -->
<!-- Pages: 1 -->
<svg width="208pt" height="260pt"
 viewBox="0.00 0.00 208.00 260.00" xmlns="http://www.w3.org/2000/svg" xmlns:xlink="http://www.w3.org/1999/xlink">
<g id="graph0" class="graph" transform="scale(1 1) rotate(0) translate(4 256)">
<polygon fill="white" stroke="transparent" points="-4,4 -4,-256 204,-256 204,4 -4,4"/>
<!-- 1 -->
<g id="node1" class="node">
<title>1</title>
<ellipse fill="none" stroke="red" cx="63" cy="-234" rx="27" ry="18"/>
<text text-anchor="middle" x="63" y="-232.1" font-family="Menlo" font-size="8.00">n, 2</text>
</g>
<!-- 2 -->
<g id="node2" class="node">
<title>2</title>
<ellipse fill="none" stroke="blue" cx="27" cy="-162" rx="27" ry="18"/>
<text text-anchor="middle" x="27" y="-160.1" font-family="Menlo" font-size="8.00">n, 1</text>
</g>
<!-- 1&#45;&gt;2 -->
<g id="edge1" class="edge">
<title>1&#45;&gt;2</title>
<path fill="none" stroke="black" d="M54.65,-216.76C50.29,-208.28 44.85,-197.71 39.96,-188.2"/>
<polygon fill="black" stroke="black" points="42.99,-186.44 35.3,-179.15 36.77,-189.64 42.99,-186.44"/>
</g>
<!-- 3 -->
<g id="node3" class="node">
<title>3</title>
<ellipse fill="none" stroke="black" cx="99" cy="-162" rx="27" ry="18"/>
<text text-anchor="middle" x="99" y="-160.1" font-family="Menlo" font-size="8.00">n&#45;5, 2</text>
</g>
<!-- 1&#45;&gt;3 -->
<g id="edge2" class="edge">
<title>1&#45;&gt;3</title>
<path fill="none" stroke="black" d="M71.35,-216.76C75.71,-208.28 81.15,-197.71 86.04,-188.2"/>
<polygon fill="black" stroke="black" points="89.23,-189.64 90.7,-179.15 83.01,-186.44 89.23,-189.64"/>
</g>
<!-- 4 -->
<g id="node4" class="node">
<title>4</title>
<ellipse fill="none" stroke="blue" cx="61" cy="-90" rx="27" ry="18"/>
<text text-anchor="middle" x="61" y="-88.1" font-family="Menlo" font-size="8.00">n&#45;5, 1</text>
</g>
<!-- 3&#45;&gt;4 -->
<g id="edge3" class="edge">
<title>3&#45;&gt;4</title>
<path fill="none" stroke="black" d="M90.19,-144.76C85.58,-136.28 79.84,-125.71 74.68,-116.2"/>
<polygon fill="black" stroke="black" points="77.61,-114.27 69.77,-107.15 71.46,-117.61 77.61,-114.27"/>
</g>
<!-- 5 -->
<g id="node5" class="node">
<title>5</title>
<ellipse fill="none" stroke="black" cx="136" cy="-90" rx="30.13" ry="18"/>
<text text-anchor="middle" x="136" y="-88.1" font-family="Menlo" font-size="8.00">n&#45;5*2, 2</text>
</g>
<!-- 3&#45;&gt;5 -->
<g id="edge4" class="edge">
<title>3&#45;&gt;5</title>
<path fill="none" stroke="black" d="M107.58,-144.76C112,-136.4 117.49,-126.02 122.47,-116.61"/>
<polygon fill="black" stroke="black" points="125.63,-118.11 127.21,-107.63 119.44,-114.84 125.63,-118.11"/>
</g>
<!-- 6 -->
<g id="node6" class="node">
<title>6</title>
<ellipse fill="none" stroke="blue" cx="98" cy="-18" rx="30.13" ry="18"/>
<text text-anchor="middle" x="98" y="-16.1" font-family="Menlo" font-size="8.00">n&#45;5*2, 1</text>
</g>
<!-- 5&#45;&gt;6 -->
<g id="edge5" class="edge">
<title>5&#45;&gt;6</title>
<path fill="none" stroke="black" d="M127.19,-72.76C122.65,-64.4 117.01,-54.02 111.9,-44.61"/>
<polygon fill="black" stroke="black" points="114.88,-42.75 107.03,-35.63 108.72,-46.09 114.88,-42.75"/>
</g>
<!-- 7 -->
<g id="node7" class="node">
<title>7</title>
<ellipse fill="none" stroke="black" cx="173" cy="-18" rx="27" ry="18"/>
<text text-anchor="middle" x="173" y="-16.1" font-family="Menlo" font-size="8.00">...</text>
</g>
<!-- 5&#45;&gt;7 -->
<g id="edge6" class="edge">
<title>5&#45;&gt;7</title>
<path fill="none" stroke="black" d="M144.77,-72.41C149.19,-64.04 154.65,-53.71 159.59,-44.37"/>
<polygon fill="black" stroke="black" points="162.72,-45.95 164.29,-35.47 156.53,-42.68 162.72,-45.95"/>
</g>
</g>
</svg>
